# xmcd CD database file
#
# Track frame offsets:
#	182
#	15657
#	30092
#	44425
#	59300
#	72297
#	87357
#	100992
#	115877
#	126965
#	141007
#	154967
#	168820
#	180637
#	198130
#	213220
#	225565
#	236605
#
# Disc length: 3364 seconds
#
# Revision: 0
# Processed by: cddbd v1.5.1PL0 Copyright (c) Steve Scherf et al.
# Submitted via: CDex 1.51
#
DISCID=e80d2212
DTITLE=Le jazz de A à Z - Nouvelle Orléans
DYEAR=1995
DGENRE=Jazz
TTITLE0=Louis Armstrong - Basin street blues
TTITLE1=King Oliver - Frankie and Johnny
TTITLE2=Jelly Roll Morton - Black bottom stomp
TTITLE3=Johnny Dodds' Trio - Blue clarinet stomp
TTITLE4=The New Orleans Feetwarmers - Mapple leaf rag
TTITLE5=Jack Teagarden - Louise
TTITLE6=Original Dixieland Jazz Band - Tiger rag
TTITLE7=Henry Allen Jr. and his New York Orchestra - Patrol wagon blues
TTITLE8=Muggsy Spanier and his Ragtime Band - Dipper mouth blues
TTITLE9=Jimmie Noon Trio - I'm going home
TTITLE10=Mezzrow-Ladnier Quintet - Royal garden blues
TTITLE11=Bunk Johnson and his New Orleans Band - When the saints go marchin' in
TTITLE12=Louis Armstrong - Saint Louis blues
TTITLE13=Sidney Bechet - Muskrat ramble
TTITLE14=Albert Nicholas - High society
TTITLE15=Claude Luter - Tiger rag
TTITLE16=Sidney Bechet - Les oignons
TTITLE17=Cap'tain John Handy - Hindustan
EXTD=YEAR: 1995
EXTT0=
EXTT1=
EXTT2=
EXTT3=
EXTT4=
EXTT5=
EXTT6=
EXTT7=
EXTT8=
EXTT9=
EXTT10=
EXTT11=
EXTT12=
EXTT13=
EXTT14=
EXTT15=
EXTT16=
EXTT17=
PLAYORDER=
